<?xml version="1.0" standalone="no"?>
<!DOCTYPE svg PUBLIC "-//W3C//DTD SVG 20010904//EN"
 "http://www.w3.org/TR/2001/REC-SVG-20010904/DTD/svg10.dtd">
<svg version="1.0" xmlns="http://www.w3.org/2000/svg"
 width="499.000000pt" height="499.000000pt" viewBox="0 0 499.000000 499.000000"
 preserveAspectRatio="xMidYMid meet">

<g transform="translate(0.000000,499.000000) scale(0.100000,-0.100000)"
fill="#000000" stroke="none">
<path d="M1987 4032 l-217 -125 0 -136 c0 -75 -3 -159 -6 -187 -3 -29 -2 -54
3 -57 5 -3 40 55 78 130 43 83 78 138 90 143 50 19 84 -21 66 -79 -6 -20 -20
-241 -31 -491 -11 -250 -27 -594 -35 -765 -16 -347 -18 -455 -7 -471 4 -6 45
-9 114 -6 88 3 107 7 111 21 2 9 47 41 101 70 95 54 96 55 96 93 0 22 -5 38
-12 38 -6 0 -46 -20 -89 -45 -43 -25 -83 -45 -89 -45 -5 0 -10 15 -10 33 0 31
6 37 78 80 43 25 86 49 95 53 12 4 17 18 17 44 0 22 -4 41 -8 44 -5 3 -42 -15
-83 -39 -41 -25 -80 -45 -86 -45 -8 0 -13 13 -13 34 0 32 5 36 90 85 89 52 90
53 90 92 0 21 -4 39 -9 39 -5 0 -40 -18 -79 -40 -38 -22 -74 -40 -81 -40 -6 0
-11 15 -11 34 0 33 4 37 85 81 84 46 85 47 85 86 0 48 -9 49 -83 4 -74 -44
-87 -45 -87 -1 0 31 5 36 80 77 77 43 79 45 80 81 0 20 -4 39 -8 42 -5 3 -37
-12 -73 -34 -35 -21 -68 -35 -72 -31 -5 5 -7 21 -5 37 2 24 16 37 76 72 75 45
88 67 60 105 -12 15 -18 13 -68 -18 -30 -19 -58 -35 -62 -35 -5 0 -8 16 -8 35
0 40 -8 33 208 160 78 45 137 74 142 69 5 -5 10 -21 12 -36 l3 -26 220 69
c120 39 221 72 223 73 2 2 -54 37 -125 77 -70 40 -140 81 -155 91 l-28 19 0
203 c0 181 -2 205 -17 218 -10 8 -92 57 -183 108 -91 51 -176 101 -190 110
-14 9 -32 19 -40 22 -9 3 -106 -47 -233 -120z m465 -89 c144 -84 148 -87 148
-120 0 -18 -5 -33 -10 -33 -24 0 -313 176 -320 194 -10 29 0 58 18 51 8 -3 82
-44 164 -92z m-139 -79 c18 -9 89 -50 160 -91 115 -68 127 -78 127 -103 0 -16
-4 -31 -8 -34 -8 -5 -298 156 -320 178 -8 8 -11 23 -6 39 7 32 6 32 47 11z
m155 -246 c73 -43 130 -83 127 -88 -3 -5 -12 -7 -19 -4 -8 3 -17 1 -21 -5 -3
-6 -13 -11 -21 -11 -25 0 -263 142 -266 159 -2 9 -2 26 0 38 4 22 5 22 36 6
17 -9 91 -52 164 -95z m-104 -96 c44 -26 79 -51 79 -57 0 -5 -11 -16 -25 -24
-24 -14 -30 -12 -84 20 -53 31 -59 38 -62 72 -2 20 0 37 5 37 4 -1 44 -22 87
-48z m-64 -122 c13 -8 13 -11 -2 -27 -21 -20 -45 -5 -35 21 7 18 16 20 37 6z
m208 -37 c-3 -37 -4 -38 -173 -135 -93 -53 -174 -97 -178 -98 -5 0 -7 17 -5
37 3 37 5 39 168 135 91 54 171 97 178 98 9 0 12 -11 10 -37z"/>
<path d="M1857 3494 l-97 -206 0 -654 0 -654 53 0 c47 0 53 2 64 28 7 15 16
136 23 282 6 140 17 392 25 560 8 168 19 413 25 545 6 132 13 255 16 273 2 17
1 32 -3 32 -4 0 -52 -93 -106 -206z"/>
<path d="M1865 3670 c-7 -12 2 -30 16 -30 12 0 12 27 0 35 -5 3 -12 1 -16 -5z"/>
<path d="M1900 3671 c0 -6 5 -13 10 -16 6 -3 10 1 10 9 0 9 -4 16 -10 16 -5 0
-10 -4 -10 -9z"/>
<path d="M1847 3634 c-15 -15 -6 -32 13 -27 12 3 19 10 17 16 -4 14 -21 19
-30 11z"/>
<path d="M1850 3590 c-12 -8 -12 -10 2 -15 19 -7 38 1 38 16 0 12 -21 11 -40
-1z"/>
<path d="M1805 3547 c-4 -10 -3 -23 4 -30 16 -16 26 0 14 25 -10 21 -11 22
-18 5z"/>
<path d="M1841 3539 c9 -17 13 -19 20 -8 14 22 11 29 -11 29 -18 0 -19 -3 -9
-21z"/>
<path d="M1773 3495 c-3 -9 -3 -18 0 -21 9 -9 48 16 42 27 -9 14 -35 11 -42
-6z"/>
<path d="M1785 3461 c-19 -8 -19 -8 4 -20 19 -11 25 -11 32 0 18 29 5 36 -36
20z"/>
<path d="M1772 3405 c7 -16 15 -22 21 -16 13 13 1 41 -17 41 -13 0 -14 -4 -4
-25z"/>
<path d="M2966 3265 c-25 -38 -21 -45 22 -34 69 18 69 19 42 39 -33 26 -45 25
-64 -5z"/>
<path d="M2855 3256 c-76 -24 -76 -30 1 -41 50 -6 51 -6 64 25 7 17 11 32 9
34 -2 2 -35 -6 -74 -18z"/>
<path d="M2975 3213 c-537 -161 -574 -173 -599 -198 -14 -14 -32 -25 -41 -25
-8 0 -15 -4 -15 -10 0 -16 8 -13 91 35 43 25 83 45 89 45 5 0 10 -15 10 -34 0
-33 -4 -37 -90 -86 -85 -49 -90 -53 -90 -85 0 -19 4 -37 10 -40 5 -3 40 12 77
35 82 49 93 50 93 6 0 -32 -5 -37 -82 -82 -70 -41 -84 -54 -86 -78 -6 -49 11
-52 78 -12 74 44 90 45 90 9 0 -39 -6 -45 -85 -90 -63 -35 -70 -42 -73 -72 -2
-19 0 -37 5 -42 5 -5 35 7 66 26 74 45 87 45 87 1 0 -33 -4 -37 -75 -76 -65
-36 -75 -45 -75 -68 0 -55 13 -58 76 -19 32 19 62 33 66 31 15 -9 8 -61 -9
-76 -10 -8 -42 -28 -70 -44 -49 -27 -53 -32 -53 -65 0 -20 3 -38 6 -42 3 -3
28 8 55 24 66 39 81 38 77 -3 -3 -28 -12 -38 -63 -69 -61 -37 -77 -65 -56 -98
8 -13 18 -11 60 13 54 29 51 30 65 -18 4 -11 33 -14 138 -15 73 -1 193 -4 266
-7 l132 -7 0 627 c0 495 -3 626 -12 625 -7 -1 -35 -8 -63 -16z"/>
<path d="M2719 3184 c-5 -15 -8 -29 -5 -31 2 -3 37 6 78 18 61 20 69 24 48 30
-14 4 -44 7 -68 8 -37 1 -44 -2 -53 -25z"/>
<path d="M2615 3184 c-71 -25 -72 -27 -40 -34 64 -16 91 -12 103 15 7 14 12
28 12 30 0 9 -35 4 -75 -11z"/>
<path d="M2482 3115 c-7 -15 -11 -30 -8 -32 6 -7 126 28 132 38 3 5 -8 9 -24
9 -16 0 -43 3 -59 6 -25 5 -31 2 -41 -21z"/>
<path d="M2413 3107 c-16 -9 -20 -16 -13 -27 7 -12 12 -11 29 4 36 32 25 46
-16 23z"/>
<path d="M2302 2026 c-51 -36 -51 -39 3 -33 28 3 51 6 53 6 8 2 -4 45 -13 47
-5 2 -25 -8 -43 -20z"/>
<path d="M1880 1898 c0 -12 -8 -18 -24 -18 -31 0 -41 -26 -18 -49 23 -24 119
-34 127 -14 9 24 6 31 -16 38 -12 4 -32 19 -45 34 -19 21 -23 23 -24 9z"/>
<path d="M2348 1790 c-27 -30 -28 -33 -28 -154 0 -123 0 -125 26 -145 15 -12
37 -21 49 -21 12 0 34 9 49 21 26 20 26 23 26 143 0 130 -11 166 -50 166 -10
0 -22 5 -25 10 -10 16 -18 12 -47 -20z m82 -41 c-2 -8 -6 -62 -8 -121 -3 -107
-4 -108 -28 -108 l-24 0 0 115 c0 111 1 116 23 125 28 11 43 7 37 -11z"/>
<path d="M1786 1696 c-14 -58 -26 -112 -26 -120 0 -9 15 -19 38 -25 90 -24 89
-24 95 -2 4 17 -1 22 -21 27 -56 14 -61 20 -50 64 10 38 12 40 49 40 31 0 39
4 39 18 0 10 -12 22 -30 29 -26 10 -30 15 -24 37 4 15 2 26 -4 26 -6 0 -17 2
-25 6 -11 4 -20 -19 -41 -100z"/>
<path d="M1970 1553 c-35 -13 -50 -37 -50 -80 0 -38 6 -50 44 -91 52 -57 63
-84 40 -106 -19 -20 -44 -5 -44 26 0 14 -6 19 -22 16 -19 -2 -22 -8 -20 -33 8
-82 137 -86 143 -5 4 54 -3 73 -45 118 -52 56 -63 84 -40 103 14 11 19 10 34
-9 24 -29 50 -29 50 1 0 38 -53 73 -90 60z"/>
<path d="M2133 1545 c-25 -10 -33 -22 -39 -50 -8 -45 4 -72 56 -129 25 -27 40
-53 40 -69 0 -42 -44 -44 -51 -2 -6 28 -49 34 -49 6 0 -33 21 -69 44 -75 66
-18 106 10 106 73 0 39 -17 67 -77 128 -13 12 -23 34 -23 48 0 35 28 44 51 17
21 -27 49 -29 49 -3 0 24 -29 58 -55 65 -11 3 -34 -1 -52 -9z"/>
<path d="M524 1537 c-2 -7 -3 -80 -2 -162 l3 -150 59 1 c49 1 63 6 78 24 23
28 24 97 2 129 -12 17 -13 26 -5 34 6 6 11 32 11 58 0 38 -5 51 -22 63 -28 20
-116 22 -124 3z m92 -37 c5 -5 8 -26 6 -45 -3 -29 -8 -35 -28 -35 -21 0 -24 5
-24 38 0 21 3 42 7 45 9 10 28 8 39 -3z m9 -180 c0 -41 -2 -45 -25 -45 -23 0
-25 4 -28 48 -3 48 -3 48 25 45 26 -3 28 -6 28 -48z"/>
<path d="M720 1384 l0 -165 23 3 c20 3 22 9 25 71 2 48 7 67 16 67 23 0 35
-24 38 -80 3 -49 6 -55 27 -58 23 -4 23 -3 19 68 -2 42 -9 74 -16 79 -10 6 -9
14 3 37 23 44 19 91 -10 119 -19 20 -34 25 -75 25 l-50 0 0 -166z m100 73 c0
-34 -15 -57 -37 -57 -13 0 -19 90 -7 103 16 15 44 -15 44 -46z"/>
<path d="M900 1385 l0 -165 25 0 25 0 0 165 0 165 -25 0 -25 0 0 -165z"/>
<path d="M1010 1530 c-18 -18 -20 -33 -20 -140 0 -117 1 -122 26 -147 21 -21
32 -24 61 -20 50 8 62 30 63 110 l0 67 -35 0 c-28 0 -35 -4 -35 -20 0 -11 5
-20 10 -20 12 0 13 -87 1 -94 -5 -4 -16 -3 -25 0 -14 5 -16 23 -14 123 3 107
4 116 22 116 14 0 22 -10 28 -32 6 -23 14 -33 28 -33 16 0 20 7 20 35 0 46
-29 75 -75 75 -22 0 -43 -8 -55 -20z"/>
<path d="M1187 1543 c-4 -3 -7 -78 -7 -165 l0 -158 25 0 c23 0 24 3 27 73 3
69 4 72 28 72 24 0 25 -3 28 -73 3 -69 4 -73 25 -70 22 3 22 7 25 166 l2 162
-25 0 c-24 0 -25 -2 -25 -70 l0 -70 -30 0 -30 0 0 70 c0 61 -2 70 -18 70 -10
0 -22 -3 -25 -7z"/>
<path d="M1364 1539 c-8 -13 5 -26 31 -31 19 -3 20 -12 23 -146 3 -142 3 -143
25 -140 21 3 22 8 27 143 5 136 6 140 28 143 14 2 22 10 22 23 0 17 -8 19 -74
19 -43 0 -78 -5 -82 -11z"/>
<path d="M1550 1385 c0 -158 1 -165 20 -165 19 0 20 7 20 112 0 61 3 109 6
105 3 -3 18 -52 33 -109 25 -95 29 -103 52 -103 l24 0 0 160 c0 153 -1 160
-20 160 -14 0 -20 -7 -21 -25 0 -14 -2 -52 -3 -85 -3 -58 -3 -59 -13 -25 -40
146 -37 140 -69 140 l-29 0 0 -165z"/>
<path d="M2534 1537 c-2 -7 -3 -80 -2 -162 3 -147 3 -150 26 -153 20 -3 22 1
23 52 1 31 2 62 3 69 0 6 16 13 34 15 23 2 32 8 32 22 0 14 -9 20 -32 22 -31
3 -33 5 -36 51 -4 46 -3 47 26 47 43 0 62 9 62 31 0 17 -8 19 -65 19 -45 0
-67 -4 -71 -13z"/>
<path d="M2785 1530 c-15 -16 -20 -42 -23 -110 -5 -106 2 -154 29 -181 46 -46
129 -4 129 66 0 31 -3 35 -25 35 -21 0 -25 -5 -25 -29 0 -33 -25 -60 -41 -44
-16 16 -18 222 -2 235 20 16 41 2 45 -29 2 -20 9 -28 23 -28 29 0 31 44 5 78
-27 34 -87 38 -115 7z"/>
<path d="M2950 1385 l0 -165 25 0 c24 0 25 2 25 64 0 67 7 80 34 70 11 -4 16
-19 16 -48 0 -65 9 -86 36 -86 23 0 23 2 17 68 -3 37 -10 72 -15 79 -6 7 -5
19 1 32 6 11 11 42 11 70 0 63 -22 81 -97 81 l-53 0 0 -165z m98 68 c-3 -41
-6 -48 -25 -51 -21 -3 -23 0 -23 47 0 48 2 51 26 51 24 0 25 -2 22 -47z"/>
<path d="M3140 1385 l0 -165 70 0 c68 0 70 1 70 25 0 23 -4 25 -46 25 l-45 0
3 48 c3 45 4 47 36 50 24 2 32 8 32 23 0 15 -7 19 -36 19 l-35 0 3 48 c3 40 6
47 22 44 34 -6 66 7 66 28 0 18 -7 20 -70 20 l-70 0 0 -165z"/>
<path d="M3350 1541 c0 -5 -11 -76 -25 -158 -14 -81 -25 -152 -25 -156 0 -5
10 -7 23 -5 16 2 23 11 25 31 3 23 8 27 37 27 29 0 34 -4 40 -30 5 -23 12 -30
31 -30 28 0 28 -7 10 94 -8 45 -20 116 -27 159 l-12 77 -38 0 c-22 0 -39 -4
-39 -9z m50 -108 c0 -16 3 -44 6 -64 5 -26 2 -38 -8 -42 -30 -11 -36 6 -25 71
10 63 27 85 27 35z"/>
<path d="M3472 1528 c2 -17 11 -24 31 -26 l27 -3 0 -140 c0 -140 0 -140 23
-137 21 3 22 7 25 139 3 136 3 137 27 143 16 4 25 13 25 26 0 18 -7 20 -81 20
-78 0 -80 -1 -77 -22z"/>
<path d="M3660 1384 l0 -165 23 3 c22 3 22 6 25 166 l2 162 -25 0 -25 0 0
-166z"/>
<path d="M3737 1543 c-2 -5 7 -79 21 -165 l25 -158 39 0 c21 0 38 4 38 9 0 16
40 271 46 296 5 22 3 25 -18 25 -24 0 -25 -4 -43 -121 -20 -132 -25 -132 -44
1 -7 47 -15 93 -18 103 -4 17 -38 24 -46 10z"/>
<path d="M3937 1543 c-3 -5 -4 -78 -3 -163 1 -153 1 -155 24 -158 l22 -3 0
165 c0 158 -1 166 -19 166 -11 0 -22 -3 -24 -7z"/>
<path d="M4012 1528 c2 -15 11 -24 25 -26 22 -3 23 -7 25 -140 l3 -137 25 0
25 0 3 136 c3 136 3 137 27 143 14 4 25 14 25 24 1 66 70 -182 70 -252 0 -53
1 -56 25 -56 24 0 25 3 25 58 0 35 12 93 30 152 35 113 36 120 10 120 -11 0
-22 -6 -25 -12 -2 -7 -11 -40 -21 -73 -18 -66 -17 -67 -44 38 l-13 47 -109 0
c-108 0 -109 0 -106 -22z"/>
</g>
</svg>
