<?xml version="1.0" standalone="no"?>
<!DOCTYPE svg PUBLIC "-//W3C//DTD SVG 20010904//EN"
 "http://www.w3.org/TR/2001/REC-SVG-20010904/DTD/svg10.dtd">
<svg version="1.0" xmlns="http://www.w3.org/2000/svg"
 width="600.000000pt" height="542.000000pt" viewBox="0 0 600.000000 542.000000"
 preserveAspectRatio="xMidYMid meet">

<g transform="translate(0.000000,542.000000) scale(0.100000,-0.100000)"
fill="#000000" stroke="none">
<path d="M0 5406 c0 -8 502 -672 1115 -1475 613 -803 1115 -1465 1115 -1470 0
-8 -2008 -2325 -2108 -2434 l-26 -27 461 0 461 0 827 945 c455 520 830 945
834 945 3 -1 330 -426 726 -945 l720 -944 928 0 928 -1 -154 203 c-85 111
-616 813 -1180 1560 l-1027 1357 867 988 c477 543 932 1060 1011 1150 l144
162 -463 -2 -464 -3 -750 -847 c-412 -466 -757 -854 -765 -863 -14 -13 -82 73
-670 850 l-654 865 -938 0 c-811 0 -938 -2 -938 -14z m3254 -2681 c905 -1196
1646 -2177 1646 -2180 0 -3 -114 -5 -252 -4 l-253 0 -1580 2065 c-869 1136
-1619 2117 -1668 2180 l-87 114 274 0 274 0 1646 -2175z"/>
</g>
</svg>
